<svg xmlns="http://www.w3.org/2000/svg" xmlns:xlink="http://www.w3.org/1999/xlink" width="600" zoomAndPan="magnify" viewBox="0 0 450 149.999998" height="200" preserveAspectRatio="xMidYMid meet" version="1.0"><defs><g/><clipPath id="38803c257f"><path d="M 173 42.449219 L 338.878906 42.449219 L 338.878906 128.699219 L 173 128.699219 Z M 173 42.449219 " clip-rule="nonzero"/></clipPath></defs><rect x="-45" width="540" fill="#ffffff" y="-15" height="179.999997" fill-opacity="1"/><rect x="-45" width="540" fill="#055242" y="-15" height="179.999997" fill-opacity="1"/><g fill="#7fd150" fill-opacity="1"><g transform="translate(6.841284, 81.924505)"><g><path d="M 9.140625 0.515625 C 4.117188 0.515625 0.785156 -0.726562 -0.859375 -3.21875 C -2.515625 -5.707031 -2.703125 -9.722656 -1.421875 -15.265625 L -0.1875 -20.671875 L 10.6875 -20.671875 L 9.078125 -13.78125 C 8.429688 -11.03125 8.988281 -9.65625 10.75 -9.65625 C 11.738281 -9.65625 12.5 -9.941406 13.03125 -10.515625 C 13.570312 -11.097656 13.992188 -12.078125 14.296875 -13.453125 C 14.722656 -15.253906 14.847656 -16.742188 14.671875 -17.921875 C 14.503906 -19.109375 14.179688 -20.097656 13.703125 -20.890625 C 13.234375 -21.691406 12.335938 -22.925781 11.015625 -24.59375 L 7.34375 -29.359375 C 4.507812 -32.960938 3.582031 -36.957031 4.5625 -41.34375 C 5.632812 -46.0625 7.546875 -49.65625 10.296875 -52.125 C 13.046875 -54.59375 16.503906 -55.828125 20.671875 -55.828125 C 25.648438 -55.828125 28.929688 -54.503906 30.515625 -51.859375 C 32.109375 -49.222656 32.238281 -45.09375 30.90625 -39.46875 L 19.640625 -39.46875 L 20.46875 -43.265625 C 20.644531 -43.992188 20.582031 -44.570312 20.28125 -45 C 19.976562 -45.4375 19.460938 -45.65625 18.734375 -45.65625 C 17.878906 -45.65625 17.171875 -45.414062 16.609375 -44.9375 C 16.054688 -44.46875 15.691406 -43.828125 15.515625 -43.015625 C 15.085938 -41.210938 15.6875 -39.34375 17.3125 -37.40625 L 22.34375 -31.234375 C 23.5 -29.773438 24.421875 -28.390625 25.109375 -27.078125 C 25.796875 -25.765625 26.234375 -24.21875 26.421875 -22.4375 C 26.617188 -20.65625 26.441406 -18.539062 25.890625 -16.09375 C 24.597656 -10.644531 22.628906 -6.515625 19.984375 -3.703125 C 17.347656 -0.890625 13.734375 0.515625 9.140625 0.515625 Z M 9.140625 0.515625 "/></g></g></g><g fill="#7fd150" fill-opacity="1"><g transform="translate(36.527145, 81.924505)"><g><path d="M 8.890625 -55.3125 L 23.5 -55.3125 C 27.925781 -55.3125 30.75 -53.882812 31.96875 -51.03125 C 33.1875 -48.175781 33.175781 -44 31.9375 -38.5 C 30.644531 -33.007812 28.835938 -28.867188 26.515625 -26.078125 C 24.203125 -23.285156 20.878906 -21.890625 16.546875 -21.890625 L 12.046875 -21.890625 L 7.015625 0 L -3.859375 0 Z M 15 -31.875 C 16.332031 -31.875 17.363281 -32.117188 18.09375 -32.609375 C 18.820312 -33.109375 19.390625 -33.816406 19.796875 -34.734375 C 20.203125 -35.660156 20.617188 -36.984375 21.046875 -38.703125 C 21.566406 -41.015625 21.6875 -42.6875 21.40625 -43.71875 C 21.125 -44.75 20.210938 -45.265625 18.671875 -45.265625 L 17.453125 -45.265625 L 14.359375 -31.875 Z M 15 -31.875 "/></g></g></g><g fill="#7fd150" fill-opacity="1"><g transform="translate(66.92134, 81.924505)"><g><path d="M 9.203125 0.515625 C 4.742188 0.515625 1.664062 -0.84375 -0.03125 -3.5625 C -1.726562 -6.289062 -2 -10.125 -0.84375 -15.0625 L 5.21875 -41.40625 C 6.332031 -46.164062 8.328125 -49.757812 11.203125 -52.1875 C 14.078125 -54.613281 17.75 -55.828125 22.21875 -55.828125 C 26.675781 -55.828125 29.785156 -54.613281 31.546875 -52.1875 C 33.304688 -49.757812 33.628906 -46.164062 32.515625 -41.40625 L 26.46875 -15.0625 C 25.300781 -10.082031 23.25 -6.238281 20.3125 -3.53125 C 17.375 -0.832031 13.671875 0.515625 9.203125 0.515625 Z M 11.53125 -9.65625 C 12.507812 -9.65625 13.273438 -10.082031 13.828125 -10.9375 C 14.390625 -11.800781 14.84375 -13.003906 15.1875 -14.546875 L 21.4375 -41.59375 C 21.695312 -42.800781 21.757812 -43.78125 21.625 -44.53125 C 21.5 -45.28125 20.941406 -45.65625 19.953125 -45.65625 C 18.109375 -45.65625 16.863281 -44.257812 16.21875 -41.46875 L 9.984375 -14.484375 C 9.597656 -12.898438 9.5 -11.695312 9.6875 -10.875 C 9.882812 -10.0625 10.5 -9.65625 11.53125 -9.65625 Z M 11.53125 -9.65625 "/></g></g></g><g fill="#7fd150" fill-opacity="1"><g transform="translate(98.21706, 81.924505)"><g><path d="M 8.890625 -55.3125 L 25.890625 -55.3125 C 28.585938 -55.3125 30.535156 -54.695312 31.734375 -53.46875 C 32.941406 -52.25 33.546875 -50.535156 33.546875 -48.328125 C 33.546875 -46.117188 33.160156 -43.296875 32.390625 -39.859375 C 31.660156 -36.722656 30.679688 -34.273438 29.453125 -32.515625 C 28.234375 -30.753906 26.53125 -29.53125 24.34375 -28.84375 C 25.925781 -28.5 26.941406 -27.660156 27.390625 -26.328125 C 27.847656 -25.003906 27.816406 -23.203125 27.296875 -20.921875 L 22.34375 0 L 11.53125 0 L 16.484375 -21.640625 C 16.867188 -23.179688 16.800781 -24.164062 16.28125 -24.59375 C 15.769531 -25.019531 14.722656 -25.234375 13.140625 -25.234375 L 7.34375 0 L -3.859375 0 Z M 18.09375 -34.828125 C 19.632812 -34.828125 20.789062 -36.503906 21.5625 -39.859375 C 21.90625 -41.316406 22.085938 -42.410156 22.109375 -43.140625 C 22.140625 -43.867188 22.015625 -44.375 21.734375 -44.65625 C 21.453125 -44.9375 20.988281 -45.078125 20.34375 -45.078125 L 17.765625 -45.078125 L 15.453125 -34.828125 Z M 18.09375 -34.828125 "/></g></g></g><g fill="#7fd150" fill-opacity="1"><g transform="translate(128.93324, 81.924505)"><g><path d="M 0.84375 0 L 11.140625 -44.6875 L 4.578125 -44.6875 L 7.015625 -55.3125 L 31.234375 -55.3125 L 28.78125 -44.6875 L 22.21875 -44.6875 L 11.90625 0 Z M 0.84375 0 "/></g></g></g><g fill="#7fd150" fill-opacity="1"><g transform="translate(154.433458, 81.924505)"><g><path d="M 9.140625 0.515625 C 4.117188 0.515625 0.785156 -0.726562 -0.859375 -3.21875 C -2.515625 -5.707031 -2.703125 -9.722656 -1.421875 -15.265625 L -0.1875 -20.671875 L 10.6875 -20.671875 L 9.078125 -13.78125 C 8.429688 -11.03125 8.988281 -9.65625 10.75 -9.65625 C 11.738281 -9.65625 12.5 -9.941406 13.03125 -10.515625 C 13.570312 -11.097656 13.992188 -12.078125 14.296875 -13.453125 C 14.722656 -15.253906 14.847656 -16.742188 14.671875 -17.921875 C 14.503906 -19.109375 14.179688 -20.097656 13.703125 -20.890625 C 13.234375 -21.691406 12.335938 -22.925781 11.015625 -24.59375 L 7.34375 -29.359375 C 4.507812 -32.960938 3.582031 -36.957031 4.5625 -41.34375 C 5.632812 -46.0625 7.546875 -49.65625 10.296875 -52.125 C 13.046875 -54.59375 16.503906 -55.828125 20.671875 -55.828125 C 25.648438 -55.828125 28.929688 -54.503906 30.515625 -51.859375 C 32.109375 -49.222656 32.238281 -45.09375 30.90625 -39.46875 L 19.640625 -39.46875 L 20.46875 -43.265625 C 20.644531 -43.992188 20.582031 -44.570312 20.28125 -45 C 19.976562 -45.4375 19.460938 -45.65625 18.734375 -45.65625 C 17.878906 -45.65625 17.171875 -45.414062 16.609375 -44.9375 C 16.054688 -44.46875 15.691406 -43.828125 15.515625 -43.015625 C 15.085938 -41.210938 15.6875 -39.34375 17.3125 -37.40625 L 22.34375 -31.234375 C 23.5 -29.773438 24.421875 -28.390625 25.109375 -27.078125 C 25.796875 -25.765625 26.234375 -24.21875 26.421875 -22.4375 C 26.617188 -20.65625 26.441406 -18.539062 25.890625 -16.09375 C 24.597656 -10.644531 22.628906 -6.515625 19.984375 -3.703125 C 17.347656 -0.890625 13.734375 0.515625 9.140625 0.515625 Z M 9.140625 0.515625 "/></g></g></g><g fill="#7fd150" fill-opacity="1"><g transform="translate(184.120118, 81.924505)"><g/></g></g><g fill="#7fd150" fill-opacity="1"><g transform="translate(199.18842, 81.924505)"><g/></g></g><g fill="#078f73" fill-opacity="1"><g transform="translate(214.257472, 81.924505)"><g><path d="M -5.34375 0 L 12.75 -55.3125 L 31.484375 -55.3125 L 24.015625 0 L 13.515625 0 L 14.8125 -8.953125 L 8.109375 -8.953125 L 5.40625 0 Z M 11.015625 -17.765625 L 16.03125 -17.765625 L 20.03125 -45.90625 L 19.515625 -45.90625 Z M 11.015625 -17.765625 "/></g></g></g><g fill="#078f73" fill-opacity="1"><g transform="translate(245.488798, 81.924505)"><g><path d="M 0.84375 0 L 11.140625 -44.6875 L 4.578125 -44.6875 L 7.015625 -55.3125 L 31.234375 -55.3125 L 28.78125 -44.6875 L 22.21875 -44.6875 L 11.90625 0 Z M 0.84375 0 "/></g></g></g><g fill="#078f73" fill-opacity="1"><g transform="translate(270.989024, 81.924505)"><g><path d="M -3.859375 0 L 8.890625 -55.3125 L 19.890625 -55.3125 L 15.328125 -35.546875 L 20.53125 -35.546875 L 25.109375 -55.3125 L 36.125 -55.3125 L 23.375 0 L 12.359375 0 L 18.15625 -25.109375 L 12.9375 -25.109375 L 7.140625 0 Z M -3.859375 0 "/></g></g></g><g fill="#078f73" fill-opacity="1"><g transform="translate(303.121871, 81.924505)"><g><path d="M -3.859375 0 L 8.890625 -55.3125 L 19.953125 -55.3125 L 9.40625 -9.40625 L 20.796875 -9.40625 L 18.609375 0 Z M -3.859375 0 "/></g></g></g><g fill="#078f73" fill-opacity="1"><g transform="translate(328.686483, 81.924505)"><g><path d="M -3.859375 0 L 8.890625 -55.3125 L 31.03125 -55.3125 L 28.59375 -44.625 L 17.703125 -44.625 L 15.1875 -33.875 L 25.625 -33.875 L 23.25 -23.4375 L 12.8125 -23.4375 L 9.84375 -10.75 L 21.4375 -10.75 L 19 0 Z M -3.859375 0 "/></g></g></g><g fill="#078f73" fill-opacity="1"><g transform="translate(355.21701, 81.924505)"><g><path d="M 0.84375 0 L 11.140625 -44.6875 L 4.578125 -44.6875 L 7.015625 -55.3125 L 31.234375 -55.3125 L 28.78125 -44.6875 L 22.21875 -44.6875 L 11.90625 0 Z M 0.84375 0 "/></g></g></g><g fill="#078f73" fill-opacity="1"><g transform="translate(380.717229, 81.924505)"><g><path d="M 8.890625 0.515625 C 4.847656 0.515625 1.90625 -0.75 0.0625 -3.28125 C -1.78125 -5.8125 -2.1875 -9.289062 -1.15625 -13.71875 L 4.703125 -39.21875 C 5.984375 -44.707031 8.039062 -48.847656 10.875 -51.640625 C 13.707031 -54.429688 17.46875 -55.828125 22.15625 -55.828125 C 26.226562 -55.828125 29.25 -54.707031 31.21875 -52.46875 C 33.195312 -50.238281 33.691406 -47.019531 32.703125 -42.8125 L 30.515625 -33.296875 L 19.515625 -33.296875 L 21.4375 -41.46875 C 21.78125 -43.050781 21.832031 -44.144531 21.59375 -44.75 C 21.363281 -45.351562 20.773438 -45.65625 19.828125 -45.65625 C 18.835938 -45.65625 18.070312 -45.3125 17.53125 -44.625 C 17 -43.9375 16.582031 -42.925781 16.28125 -41.59375 L 9.84375 -13.84375 C 9.550781 -12.382812 9.53125 -11.320312 9.78125 -10.65625 C 10.039062 -9.988281 10.597656 -9.65625 11.453125 -9.65625 C 13.171875 -9.65625 14.351562 -11.050781 15 -13.84375 L 17.3125 -23.828125 L 28.453125 -23.828125 L 26.078125 -13.390625 C 23.929688 -4.117188 18.203125 0.515625 8.890625 0.515625 Z M 8.890625 0.515625 "/></g></g></g><g fill="#078f73" fill-opacity="1"><g transform="translate(411.240218, 81.924505)"><g><path d="M 9.140625 0.515625 C 4.117188 0.515625 0.785156 -0.726562 -0.859375 -3.21875 C -2.515625 -5.707031 -2.703125 -9.722656 -1.421875 -15.265625 L -0.1875 -20.671875 L 10.6875 -20.671875 L 9.078125 -13.78125 C 8.429688 -11.03125 8.988281 -9.65625 10.75 -9.65625 C 11.738281 -9.65625 12.5 -9.941406 13.03125 -10.515625 C 13.570312 -11.097656 13.992188 -12.078125 14.296875 -13.453125 C 14.722656 -15.253906 14.847656 -16.742188 14.671875 -17.921875 C 14.503906 -19.109375 14.179688 -20.097656 13.703125 -20.890625 C 13.234375 -21.691406 12.335938 -22.925781 11.015625 -24.59375 L 7.34375 -29.359375 C 4.507812 -32.960938 3.582031 -36.957031 4.5625 -41.34375 C 5.632812 -46.0625 7.546875 -49.65625 10.296875 -52.125 C 13.046875 -54.59375 16.503906 -55.828125 20.671875 -55.828125 C 25.648438 -55.828125 28.929688 -54.503906 30.515625 -51.859375 C 32.109375 -49.222656 32.238281 -45.09375 30.90625 -39.46875 L 19.640625 -39.46875 L 20.46875 -43.265625 C 20.644531 -43.992188 20.582031 -44.570312 20.28125 -45 C 19.976562 -45.4375 19.460938 -45.65625 18.734375 -45.65625 C 17.878906 -45.65625 17.171875 -45.414062 16.609375 -44.9375 C 16.054688 -44.46875 15.691406 -43.828125 15.515625 -43.015625 C 15.085938 -41.210938 15.6875 -39.34375 17.3125 -37.40625 L 22.34375 -31.234375 C 23.5 -29.773438 24.421875 -28.390625 25.109375 -27.078125 C 25.796875 -25.765625 26.234375 -24.21875 26.421875 -22.4375 C 26.617188 -20.65625 26.441406 -18.539062 25.890625 -16.09375 C 24.597656 -10.644531 22.628906 -6.515625 19.984375 -3.703125 C 17.347656 -0.890625 13.734375 0.515625 9.140625 0.515625 Z M 9.140625 0.515625 "/></g></g></g><path fill="#f5f5ef" d="M 292.886719 116.625 C 292.886719 116.625 291.828125 117.027344 286.390625 119.480469 C 280.949219 121.929688 277.066406 123.1875 273.007812 124.488281 C 268.949219 125.789062 260.292969 124.566406 260.292969 124.566406 C 260.292969 124.566406 256.460938 125.027344 252.707031 125.714844 C 248.957031 126.402344 241.984375 124.566406 241.984375 124.566406 L 238.234375 116.519531 C 238.234375 116.519531 238.234375 116.519531 242.214844 111.925781 C 246.199219 107.328125 253.246094 110.378906 253.246094 110.378906 L 254.148438 107.945312 C 251.855469 107.496094 248.488281 106.605469 247.539062 105.753906 C 245.746094 104.132812 239.632812 97.773438 244.207031 91.003906 C 248.777344 84.238281 258.535156 88.285156 260.613281 91.347656 C 260.953125 91.84375 261.28125 92.300781 261.597656 92.722656 L 262.902344 90.625 C 262.902344 90.625 260.691406 87.078125 260.453125 85.570312 C 260.210938 84.0625 262.214844 82.128906 262.214844 82.128906 L 274.929688 79.667969 C 274.929688 79.667969 277.84375 84.1875 279.144531 86.5625 C 280.445312 88.941406 280.21875 94.148438 280.21875 94.148438 C 285.121094 95.984375 288.183594 100.507812 288.183594 100.507812 L 291.75 101.273438 C 291.75 101.273438 294.8125 104.800781 295.347656 108.015625 C 295.878906 111.238281 292.886719 116.625 292.886719 116.625 Z M 292.886719 116.625 " fill-opacity="1" fill-rule="nonzero"/><path fill="#f5f5ef" d="M 276.347656 82.046875 C 276.347656 82.046875 272.566406 89.164062 262.324219 83.273438 C 262.324219 83.273438 260.277344 82.738281 256.828125 82.738281 C 253.378906 82.738281 232.351562 76.480469 225.992188 75.402344 C 225.992188 75.402344 228.902344 72.492188 229.546875 70.226562 C 230.195312 67.964844 228.828125 64.34375 228.828125 64.34375 C 228.828125 64.34375 237.695312 63.804688 248.714844 64.203125 C 264.257812 64.765625 269.65625 71.734375 271.273438 74.105469 C 272.890625 76.480469 276.347656 82.046875 276.347656 82.046875 Z M 262.851562 97.863281 C 262.03125 96.675781 258.351562 92.992188 258.351562 92.992188 C 258.351562 92.992188 256.265625 97.316406 255.171875 98.660156 C 254.074219 100.003906 249.960938 102.972656 249.960938 102.972656 C 249.960938 102.972656 252.25 105.09375 253.4375 105.894531 C 254.621094 106.691406 256.480469 106.59375 258.328125 106.785156 C 260.171875 106.976562 260.832031 107.140625 262.183594 106.734375 C 263.53125 106.324219 264.925781 103.308594 264.515625 101.957031 C 264.105469 100.605469 263.671875 99.058594 262.851562 97.863281 Z M 240.449219 111.449219 C 240.449219 111.449219 234.308594 110.464844 233.015625 109.757812 C 231.71875 109.046875 229.925781 105.878906 225.453125 103.992188 C 220.980469 102.109375 204.667969 97.554688 204.667969 97.554688 C 204.667969 97.554688 203.257812 99.910156 202.433594 101.320312 C 201.609375 102.734375 199.339844 103.171875 199.339844 103.171875 C 199.339844 103.171875 208.546875 109.980469 211.964844 112.625 C 223.757812 121.746094 230.546875 121.351562 231.734375 121.691406 C 232.363281 121.875 236.578125 124.121094 239.199219 124.296875 C 239.335938 124.332031 239.476562 124.371094 239.625 124.410156 C 239.648438 124.417969 239.675781 124.421875 239.699219 124.429688 C 239.835938 124.464844 239.980469 124.5 240.132812 124.542969 C 240.148438 124.546875 240.160156 124.550781 240.175781 124.554688 C 240.335938 124.59375 240.496094 124.628906 240.667969 124.667969 C 240.703125 124.675781 240.742188 124.683594 240.777344 124.691406 C 240.929688 124.730469 241.089844 124.761719 241.25 124.792969 C 241.269531 124.796875 241.292969 124.800781 241.3125 124.804688 C 241.488281 124.839844 241.667969 124.871094 241.847656 124.902344 C 241.890625 124.910156 241.9375 124.917969 241.980469 124.925781 C 242.144531 124.957031 242.308594 124.980469 242.472656 125.003906 C 242.5 125.007812 242.523438 125.011719 242.550781 125.015625 C 242.734375 125.039062 242.917969 125.0625 243.101562 125.082031 C 243.148438 125.085938 243.195312 125.089844 243.242188 125.097656 C 243.410156 125.113281 243.574219 125.128906 243.742188 125.136719 C 243.765625 125.136719 243.789062 125.140625 243.8125 125.140625 C 243.996094 125.15625 244.175781 125.160156 244.347656 125.164062 C 244.398438 125.164062 244.445312 125.164062 244.492188 125.164062 C 244.65625 125.164062 244.820312 125.160156 244.972656 125.152344 C 244.992188 125.152344 245.011719 125.152344 245.03125 125.144531 C 245.199219 125.136719 245.367188 125.117188 245.53125 125.097656 C 245.574219 125.09375 245.613281 125.085938 245.660156 125.082031 C 245.8125 125.058594 245.960938 125.035156 246.105469 125 C 246.117188 124.996094 246.128906 124.996094 246.136719 124.992188 C 246.285156 124.957031 246.429688 124.90625 246.570312 124.859375 C 246.605469 124.847656 246.640625 124.832031 246.671875 124.820312 C 246.804688 124.769531 246.929688 124.707031 247.050781 124.644531 C 247.054688 124.640625 247.058594 124.640625 247.066406 124.636719 C 247.1875 124.570312 247.296875 124.484375 247.402344 124.402344 C 247.425781 124.382812 247.453125 124.359375 247.476562 124.339844 C 247.574219 124.246094 247.667969 124.152344 247.746094 124.042969 C 249.628906 121.453125 246.6875 113.804688 240.449219 111.449219 Z M 144.960938 72.066406 C 144.9375 72.097656 144.898438 72.117188 144.863281 72.117188 C 144.839844 72.117188 144.816406 72.109375 144.796875 72.097656 C 144.746094 72.058594 144.730469 71.980469 144.769531 71.929688 C 145.375 71.0625 146.039062 70.203125 146.742188 69.378906 C 146.757812 69.359375 146.785156 69.351562 146.808594 69.34375 C 146.152344 63.398438 147.523438 58.824219 147.523438 58.824219 L 147.59375 58.558594 C 147.59375 58.558594 147.675781 58.242188 147.675781 58.242188 C 147.210938 58.839844 146.804688 59.457031 146.398438 60.058594 C 146.398438 60.0625 145.507812 61.492188 145.199219 62.171875 C 145.195312 62.183594 145.1875 62.191406 145.183594 62.199219 C 144.839844 62.792969 144.582031 63.457031 144.289062 64.035156 C 144.28125 64.046875 144.277344 64.058594 144.265625 64.074219 C 144.125 64.359375 144.066406 64.652344 143.929688 64.9375 C 143.921875 64.953125 143.914062 64.96875 143.910156 64.984375 C 143.777344 65.265625 143.71875 65.554688 143.597656 65.835938 C 143.023438 67.847656 142.976562 71.074219 143.570312 73.953125 C 144.34375 77.703125 145.667969 80.054688 147.769531 82.195312 C 149.597656 83.230469 151.835938 84.300781 154.457031 85.039062 C 149.359375 80.171875 147.417969 74.472656 146.835938 69.636719 C 146.167969 70.421875 145.535156 71.238281 144.960938 72.066406 Z M 196.40625 72.703125 C 195.1875 74.472656 193.75 76.175781 191.832031 77.589844 C 184.179688 73.234375 181.253906 64.34375 180.878906 58.449219 C 180.820312 57.519531 180.855469 56.636719 180.949219 55.796875 C 181.113281 55.796875 181.277344 55.796875 181.449219 55.800781 C 181.515625 55.808594 181.566406 55.75 181.566406 55.683594 C 181.566406 55.621094 181.515625 55.566406 181.453125 55.566406 C 181.289062 55.5625 181.128906 55.566406 180.972656 55.5625 C 181.476562 51.570312 183.429688 48.667969 184.335938 47.382812 C 186.410156 48 188.292969 48.808594 189.996094 49.679688 C 189.082031 51.554688 188.542969 53.617188 188.449219 57.539062 C 188.253906 65.144531 193 70.9375 196.40625 72.703125 Z M 187.972656 56.113281 C 187.980469 56.050781 187.933594 55.992188 187.871094 55.984375 C 186.792969 55.863281 185.714844 55.773438 184.667969 55.699219 C 184.605469 55.695312 184.546875 55.746094 184.542969 55.8125 C 184.539062 55.875 184.589844 55.933594 184.65625 55.9375 C 185.703125 56.003906 186.777344 56.097656 187.851562 56.21875 C 187.855469 56.21875 187.859375 56.21875 187.863281 56.21875 C 187.917969 56.222656 187.96875 56.175781 187.972656 56.113281 Z M 187.972656 56.113281 " fill-opacity="1" fill-rule="nonzero"/><g clip-path="url(#38803c257f)"><path fill="#f87230" d="M 213.039062 100.0625 C 213.039062 100.0625 212.101562 104.15625 210.023438 106.441406 C 207.945312 108.730469 204.605469 108.773438 204.605469 108.773438 L 202.550781 106.34375 L 200.117188 104.328125 C 200.117188 104.328125 196.734375 103.792969 194.441406 103.234375 C 192.144531 102.683594 184.484375 100.613281 180.175781 98.359375 C 175.867188 96.101562 173.335938 94.445312 173.402344 93.140625 C 173.472656 91.835938 174.164062 91.078125 175.015625 91.480469 C 175.867188 91.886719 179.882812 94.203125 179.882812 94.203125 L 184.742188 95.617188 C 184.742188 95.617188 181.082031 93.390625 180.164062 92.910156 C 179.246094 92.429688 176.101562 90.085938 175.417969 89.25 C 174.734375 88.414062 175.148438 86.113281 176.632812 86.769531 C 178.125 87.429688 182.335938 90.1875 182.335938 90.1875 L 186.949219 92.242188 C 186.949219 92.242188 183.300781 89.804688 181.84375 88.492188 C 180.386719 87.183594 178.429688 85.777344 177.746094 84.941406 C 177.058594 84.105469 178.703125 81.871094 180.09375 83.101562 C 181.480469 84.335938 185.144531 86.414062 185.144531 86.414062 L 189.175781 88.511719 C 189.175781 88.511719 186.703125 85.898438 185.988281 84.867188 C 185.273438 83.832031 184.066406 81.683594 183.570312 80.796875 C 183.074219 79.90625 184.667969 77.996094 186.472656 79.855469 C 188.28125 81.71875 189.246094 83.175781 189.246094 83.175781 C 189.246094 83.175781 193.746094 87.308594 194.945312 87.820312 C 196.140625 88.339844 199.066406 88.761719 199.066406 88.761719 C 199.066406 88.761719 199.046875 86.492188 198.882812 85.308594 C 198.722656 84.121094 198.050781 82.996094 198.210938 81.691406 C 198.371094 80.386719 198.46875 79.347656 199.316406 78.753906 C 200.164062 78.164062 201.167969 78.941406 201.410156 80.359375 C 201.652344 81.773438 202.253906 84.164062 202.5625 85.222656 C 202.871094 86.28125 205.042969 92.097656 205.585938 93.527344 C 206.125 94.957031 206.570312 96.042969 206.570312 96.042969 C 206.570312 96.042969 210.15625 98.074219 210.863281 98.445312 C 211.570312 98.828125 213.097656 99.378906 213.039062 100.0625 Z M 265.691406 94.96875 C 264.664062 93.804688 262.753906 91.632812 262.472656 91.3125 L 261.59375 92.722656 C 263.210938 94.90625 264.449219 96.171875 264.546875 97.1875 C 264.574219 97.488281 264.507812 97.996094 264.394531 98.582031 L 264.023438 99.636719 C 264.023438 99.636719 264.425781 100.726562 264.589844 101.195312 C 264.753906 101.664062 264.714844 102.015625 264.46875 102.96875 C 264.21875 103.921875 263.597656 104.878906 263.265625 105.417969 C 262.933594 105.960938 262.394531 106.125 261.8125 106.207031 C 261.230469 106.292969 260.011719 107.261719 260.011719 107.261719 L 258.953125 107.109375 C 258.175781 107.601562 256.949219 108.273438 256.097656 108.238281 C 255.734375 108.222656 255.015625 108.113281 254.144531 107.941406 L 253.839844 108.773438 C 255.867188 109.167969 258.3125 109.585938 259.695312 109.625 C 261.820312 109.683594 268.578125 107.992188 271.234375 107.308594 C 271.789062 107.167969 272.070312 106.546875 271.808594 106.03125 C 270.414062 103.335938 266.59375 95.992188 265.691406 94.96875 Z M 333.84375 125.566406 C 333.84375 125.566406 332.59375 123.839844 330.929688 119.40625 C 329.078125 114.453125 328.378906 114.367188 327.589844 113.699219 C 327.015625 113.214844 323.464844 111.460938 319.488281 110.210938 C 319.332031 110.03125 319.207031 109.898438 319.128906 109.863281 C 318.832031 109.722656 318.234375 109.4375 315.703125 108.59375 C 313.171875 107.753906 308.324219 106.839844 307.46875 106.726562 C 306.816406 106.636719 305.953125 107 305.585938 107.179688 C 304.972656 107.023438 304.625 106.933594 304.625 106.933594 C 304.625 106.933594 308.113281 104.84375 310.101562 103.773438 C 312.085938 102.703125 317.914062 98.648438 317.914062 98.648438 C 317.914062 98.648438 318.382812 101.019531 320.140625 101.863281 C 321.898438 102.703125 323.308594 104.664062 323.960938 105.457031 C 325.351562 107.140625 326.09375 108.445312 326.09375 108.445312 L 326.246094 109.460938 C 326.277344 109.652344 326.402344 109.808594 326.582031 109.875 C 326.941406 110.011719 327.589844 110.21875 328.253906 110.273438 C 329.253906 110.355469 329.730469 110.875 330.332031 111.039062 C 330.929688 111.195312 331.6875 111.117188 331.726562 110.757812 C 331.765625 110.402344 330.050781 109.5625 329.449219 108.921875 C 328.851562 108.28125 327.894531 107.722656 327.53125 106.964844 C 327.175781 106.203125 324.429688 98.347656 323.125 96.363281 C 321.820312 94.378906 321.265625 93.609375 320.527344 92.574219 C 319.785156 91.535156 317.175781 91.414062 314.863281 91.09375 C 312.878906 90.816406 311.152344 91.339844 309.441406 91.738281 C 308.695312 91.589844 308.34375 91.328125 307.96875 91.300781 C 307.433594 91.257812 306.867188 91.417969 304 92.210938 C 301.128906 93.003906 299.480469 94.152344 298.46875 94.644531 C 297.453125 95.144531 296.96875 95.582031 296.820312 95.984375 C 296.78125 96.089844 296.8125 96.3125 296.878906 96.582031 C 294.222656 98.828125 291.621094 101.261719 291.621094 101.261719 C 291.621094 101.261719 294.292969 104.335938 294.765625 107.148438 C 295.234375 109.957031 292.613281 116.65625 292.613281 116.65625 C 292.613281 116.65625 294.386719 116.300781 295.871094 117.269531 C 297.355469 118.234375 301.316406 118.234375 304.289062 118.976562 C 307.261719 119.71875 311.269531 119.546875 316.839844 119.625 C 322.410156 119.699219 323.667969 119.464844 323.667969 119.464844 C 323.667969 119.464844 324.136719 121.265625 325.433594 122.644531 C 326.589844 123.871094 329.53125 124.453125 330.695312 125.273438 C 331.863281 126.09375 333.074219 127.820312 333.074219 127.820312 C 333.074219 127.820312 334.945312 128.535156 336.207031 128.699219 C 337.472656 128.863281 338.238281 128.480469 338.402344 128.09375 C 338.566406 127.703125 334.722656 126.558594 333.84375 125.566406 Z M 257.460938 98.636719 C 257.460938 98.886719 257.664062 99.085938 257.910156 99.085938 C 258.160156 99.085938 258.359375 98.882812 258.359375 98.636719 C 258.359375 98.386719 258.15625 98.1875 257.910156 98.1875 C 257.65625 98.183594 257.460938 98.386719 257.460938 98.636719 Z M 253.917969 102.375 C 253.917969 102.625 254.121094 102.824219 254.367188 102.824219 C 254.617188 102.824219 254.816406 102.621094 254.816406 102.375 C 254.816406 102.125 254.613281 101.925781 254.367188 101.925781 C 254.121094 101.925781 253.917969 102.128906 253.917969 102.375 Z M 257.046875 98.550781 C 257.277344 98.273438 257.339844 96.878906 257.96875 95.847656 C 258.210938 95.449219 258.175781 95.429688 258.175781 95.429688 L 258.042969 95.070312 C 258.042969 95.070312 257.390625 95.21875 257.328125 95.410156 C 257.144531 95.960938 256.730469 96.886719 256.558594 97.277344 C 256.28125 97.929688 255.980469 98.449219 255.980469 98.449219 L 256.554688 99.273438 C 256.554688 99.277344 256.816406 98.832031 257.046875 98.550781 Z M 255.59375 100.738281 C 255.59375 100.738281 255.027344 100.121094 254.890625 100.164062 C 254.75 100.210938 254.113281 100.710938 254.113281 100.710938 C 254.113281 100.710938 252.738281 101.832031 251.949219 102.40625 C 251.578125 102.917969 251.730469 103.042969 251.707031 103.414062 C 251.683594 103.785156 251.839844 103.746094 251.839844 103.746094 C 251.839844 103.746094 252.144531 103.558594 252.164062 103.464844 C 252.1875 103.375 252.625 102.515625 252.765625 102.398438 C 252.902344 102.285156 254.15625 101.75 254.527344 101.5625 C 254.902344 101.386719 255.59375 100.738281 255.59375 100.738281 Z M 275.488281 78.898438 C 275.214844 78.339844 272.941406 74.324219 272.28125 74.039062 C 271.871094 73.863281 271.375 73.8125 271.058594 73.800781 C 270.878906 73.546875 270.660156 73.253906 270.40625 72.9375 C 270.640625 73.316406 270.921875 73.703125 271.273438 74.105469 C 275.953125 79.496094 270.761719 84.726562 267.648438 84.476562 C 264.542969 84.226562 262.320312 83.269531 262.320312 83.269531 C 272.671875 89.417969 276.429688 81.980469 276.429688 81.980469 C 276.429688 81.980469 276.183594 81.597656 275.792969 81 C 275.59375 79.949219 275.714844 79.363281 275.488281 78.898438 Z M 240.449219 111.449219 C 240.449219 111.449219 237.859375 111.035156 235.6875 110.546875 C 236.3125 111.125 238.695312 115.667969 238.195312 117.886719 C 237.585938 120.558594 234.4375 120.367188 234.4375 120.367188 C 234.4375 120.367188 231.84375 121.136719 230.113281 121.457031 C 230.925781 121.574219 231.464844 121.613281 231.730469 121.691406 C 232.359375 121.875 236.574219 124.121094 239.195312 124.296875 C 239.332031 124.332031 239.472656 124.371094 239.621094 124.410156 C 239.644531 124.417969 239.671875 124.421875 239.695312 124.429688 C 239.832031 124.464844 239.976562 124.5 240.128906 124.542969 C 240.144531 124.546875 240.15625 124.550781 240.171875 124.554688 C 240.332031 124.59375 240.492188 124.628906 240.664062 124.667969 C 240.699219 124.675781 240.738281 124.683594 240.773438 124.691406 C 240.925781 124.730469 241.085938 124.761719 241.246094 124.792969 C 241.265625 124.796875 241.289062 124.800781 241.308594 124.804688 C 241.484375 124.839844 241.664062 124.871094 241.84375 124.902344 C 241.886719 124.910156 241.933594 124.917969 241.976562 124.925781 C 242.140625 124.957031 242.304688 124.980469 242.46875 125.003906 C 242.496094 125.007812 242.519531 125.011719 242.546875 125.015625 C 242.730469 125.039062 242.914062 125.0625 243.097656 125.082031 C 243.144531 125.085938 243.191406 125.089844 243.238281 125.097656 C 243.40625 125.113281 243.570312 125.128906 243.738281 125.136719 C 243.761719 125.136719 243.785156 125.140625 243.808594 125.140625 C 243.992188 125.15625 244.171875 125.160156 244.34375 125.164062 C 244.394531 125.164062 244.441406 125.164062 244.488281 125.164062 C 244.652344 125.164062 244.816406 125.160156 244.96875 125.152344 C 244.988281 125.152344 245.007812 125.152344 245.027344 125.144531 C 245.195312 125.136719 245.363281 125.117188 245.527344 125.097656 C 245.570312 125.09375 245.609375 125.085938 245.652344 125.082031 C 245.808594 125.058594 245.957031 125.035156 246.101562 125 C 246.113281 124.996094 246.125 124.996094 246.132812 124.992188 C 246.28125 124.957031 246.425781 124.90625 246.566406 124.859375 C 246.601562 124.847656 246.636719 124.832031 246.667969 124.820312 C 246.800781 124.769531 246.925781 124.707031 247.046875 124.644531 C 247.050781 124.640625 247.054688 124.640625 247.0625 124.636719 C 247.183594 124.570312 247.292969 124.484375 247.398438 124.402344 C 247.421875 124.382812 247.449219 124.359375 247.472656 124.339844 C 247.570312 124.246094 247.664062 124.152344 247.742188 124.042969 C 249.628906 121.453125 246.6875 113.804688 240.449219 111.449219 Z M 232.136719 77.976562 C 232.136719 77.976562 235.046875 75.707031 236.09375 71.613281 C 237.140625 67.515625 234.851562 63.894531 234.851562 63.894531 C 234.851562 63.894531 230.90625 64.332031 228.894531 63.480469 C 226.886719 62.628906 224.605469 62.5 224.605469 62.5 C 224.605469 62.5 224.605469 62.5 222.523438 59.308594 C 220.4375 56.117188 215.148438 52.011719 212.261719 48.542969 C 209.371094 45.074219 206.8125 43.683594 205.519531 43.523438 C 204.226562 43.359375 200.71875 42.46875 199.25 43.023438 C 197.78125 43.582031 196.925781 44.632812 199.035156 45.480469 C 201.144531 46.328125 204.660156 47.203125 204.660156 47.203125 L 208.195312 51 C 208.195312 51 201.441406 45.890625 199.273438 46.164062 C 197.105469 46.4375 191.726562 45.722656 190.574219 47.929688 C 189.660156 49.671875 192.269531 49.941406 193.589844 49.871094 C 194.773438 49.8125 198.214844 49.863281 199.109375 49.9375 C 200.007812 50.007812 206.058594 54.878906 206.058594 54.878906 C 206.058594 54.878906 198.652344 50.382812 196.769531 50.445312 C 195.394531 50.488281 191.550781 51.242188 189.132812 51.933594 C 188.902344 52.757812 188.726562 53.6875 188.609375 54.808594 C 188.644531 54.8125 188.671875 54.820312 188.703125 54.824219 C 189.996094 54.984375 196.296875 54.734375 196.988281 54.714844 C 197.683594 54.691406 202.019531 58.097656 202.019531 58.097656 C 202.019531 58.097656 196.804688 55.960938 195.625 56.300781 C 194.449219 56.648438 190.273438 57.851562 188.539062 59.230469 C 188.519531 59.246094 188.507812 59.257812 188.488281 59.273438 C 188.535156 59.921875 188.617188 60.558594 188.730469 61.175781 C 188.988281 61.210938 189.28125 61.222656 189.605469 61.214844 C 191.382812 61.15625 195.390625 60.257812 196.183594 60.234375 C 196.972656 60.207031 202.816406 62.410156 203.824219 62.984375 C 204.835938 63.5625 209.132812 67.804688 209.132812 67.804688 L 207.011719 69.507812 C 207.011719 69.507812 201.0625 69.296875 199.007812 69.976562 C 197.796875 70.378906 196.222656 71.105469 195.179688 71.929688 C 195.597656 72.238281 196.011719 72.5 196.40625 72.703125 C 195.921875 73.402344 195.410156 74.085938 194.84375 74.75 C 195.53125 74.964844 196.804688 74.820312 199.257812 74.554688 C 203.402344 74.113281 206.199219 74.9375 208.777344 74.953125 C 211.351562 74.96875 220.863281 74.222656 220.863281 74.222656 C 220.863281 74.222656 223.433594 74.875 224.75 75.847656 C 226.070312 76.824219 227.761719 77.074219 227.761719 77.074219 L 230.695312 78.914062 Z M 232.136719 77.976562 " fill-opacity="1" fill-rule="nonzero"/></g><path fill="#078f73" d="M 143.558594 65.996094 C 141.820312 71.074219 141.980469 75.363281 142.195312 76.378906 C 142.40625 77.359375 144.089844 79.832031 147.636719 82.058594 C 145.613281 79.957031 144.324219 77.625 143.570312 73.953125 C 142.996094 71.144531 143.023438 68.007812 143.558594 65.996094 Z M 143.269531 74.78125 C 142.777344 75.6875 142.546875 76.238281 142.546875 76.242188 C 142.527344 76.289062 142.484375 76.316406 142.441406 76.316406 C 142.425781 76.316406 142.414062 76.3125 142.398438 76.308594 C 142.335938 76.285156 142.308594 76.214844 142.332031 76.152344 C 142.339844 76.128906 142.566406 75.582031 143.066406 74.664062 C 143.097656 74.609375 143.167969 74.585938 143.226562 74.617188 C 143.28125 74.652344 143.300781 74.722656 143.269531 74.78125 Z M 261.78125 94.058594 C 261.683594 93.472656 261.558594 92.875 261.378906 92.277344 L 261.3125 92.054688 L 257.199219 90.535156 L 257.164062 91.171875 C 257.085938 92.523438 256.875 93.71875 256.570312 94.78125 C 255.800781 92.414062 253.890625 88.578125 249.464844 87.488281 C 247.441406 87.867188 245.53125 88.917969 244.121094 91.003906 C 242.59375 93.269531 242.273438 95.484375 242.582031 97.496094 C 244.695312 98.429688 248.140625 100.003906 253.445312 99.988281 C 253.765625 99.699219 254.074219 99.40625 254.347656 99.140625 C 251.96875 102.066406 248.929688 102.738281 248.726562 102.777344 L 248.207031 102.886719 L 249.496094 106.84375 L 249.890625 106.789062 C 250.246094 106.738281 251 106.625 251.933594 106.472656 C 252.453125 106.777344 255.308594 108.394531 256.929688 108.394531 C 257.0625 108.394531 257.183594 108.382812 257.296875 108.363281 C 257.441406 108.335938 257.605469 108.304688 257.785156 108.273438 C 259.460938 107.960938 262.265625 107.4375 263.632812 105.730469 C 265.179688 103.804688 265.710938 101.824219 265.179688 99.992188 C 264.683594 98.28125 262.105469 94.535156 261.78125 94.058594 Z M 250.148438 105.789062 L 249.421875 103.554688 C 251.226562 102.980469 257.289062 100.4375 258.054688 91.855469 L 260.542969 92.773438 C 261.507812 96.222656 260.804688 99.683594 260.570312 100.835938 L 260.539062 100.992188 C 260.371094 101.828125 259.097656 103.207031 257.988281 104.078125 C 257.390625 104.546875 253.179688 105.339844 250.148438 105.789062 Z M 257.609375 107.332031 C 257.425781 107.371094 257.261719 107.398438 257.109375 107.429688 C 256.40625 107.566406 254.761719 106.890625 253.425781 106.207031 C 255.386719 105.851562 257.539062 105.386719 258.363281 104.949219 L 262.28125 105.714844 C 260.988281 106.699219 258.925781 107.085938 257.609375 107.332031 Z M 263.066406 104.902344 L 259.324219 104.175781 C 259.8125 103.726562 260.335938 103.175781 260.75 102.609375 L 263.566406 104.167969 C 263.414062 104.414062 263.25 104.65625 263.066406 104.902344 Z M 264 103.335938 L 261.238281 101.808594 C 261.34375 101.59375 261.421875 101.382812 261.460938 101.175781 L 261.492188 101.019531 C 261.566406 100.660156 261.683594 100.082031 261.785156 99.355469 L 264.355469 102.160156 C 264.285156 102.550781 264.167969 102.941406 264 103.335938 Z M 261.917969 98.113281 C 261.96875 97.476562 261.992188 96.777344 261.96875 96.039062 C 262.832031 97.367188 263.984375 99.253906 264.269531 100.242188 C 264.328125 100.429688 264.367188 100.621094 264.394531 100.8125 Z M 145.195312 62.171875 C 145.191406 62.179688 145.1875 62.1875 145.179688 62.195312 C 145.1875 62.179688 145.195312 62.167969 145.203125 62.152344 C 145.203125 62.160156 145.199219 62.167969 145.195312 62.171875 Z M 334.675781 126.179688 C 334.675781 126.179688 334.671875 126.175781 334.664062 126.171875 C 334.667969 126.171875 334.671875 126.175781 334.671875 126.175781 Z M 186.109375 47.976562 C 187.492188 48.488281 188.789062 49.070312 189.992188 49.679688 C 189.078125 51.554688 188.539062 53.617188 188.445312 57.539062 C 188.257812 65.140625 192.996094 70.933594 196.40625 72.699219 C 200.742188 66.605469 200.960938 60.507812 200.695312 59.175781 C 200.394531 57.71875 195.203125 51.277344 186.109375 47.976562 Z M 194.210938 57.167969 C 194.203125 57.167969 194.195312 57.167969 194.191406 57.164062 C 193.128906 56.964844 192.0625 56.789062 191.03125 56.632812 C 190.964844 56.625 190.921875 56.566406 190.929688 56.496094 C 190.9375 56.433594 190.996094 56.390625 191.066406 56.398438 C 192.105469 56.550781 193.171875 56.730469 194.238281 56.929688 C 194.300781 56.941406 194.34375 57.003906 194.332031 57.066406 C 194.316406 57.128906 194.269531 57.167969 194.210938 57.167969 Z M 198.984375 58.1875 C 198.976562 58.1875 198.964844 58.1875 198.957031 58.183594 C 198.414062 58.054688 197.882812 57.929688 197.351562 57.8125 C 197.289062 57.796875 197.25 57.738281 197.265625 57.675781 C 197.28125 57.609375 197.34375 57.570312 197.402344 57.585938 C 197.933594 57.707031 198.46875 57.828125 199.011719 57.957031 C 199.074219 57.972656 199.113281 58.035156 199.097656 58.101562 C 199.082031 58.152344 199.035156 58.1875 198.984375 58.1875 Z M 334.449219 126.042969 C 334.324219 125.996094 334.167969 125.992188 334.015625 126.136719 C 333.691406 126.4375 333.554688 126.757812 333.652344 126.917969 C 333.753906 127.074219 334.03125 127.1875 334.03125 127.1875 C 334.03125 127.1875 333.433594 127.296875 332.933594 127.117188 C 332.769531 127.054688 332.632812 127.0625 332.53125 127.101562 C 332.070312 126.527344 331.371094 125.738281 330.691406 125.261719 C 329.527344 124.441406 326.585938 123.855469 325.429688 122.632812 C 324.53125 121.683594 324.03125 120.53125 323.808594 119.90625 C 324.363281 120.128906 325.988281 120.734375 327.378906 120.734375 C 328.921875 120.734375 330.757812 120.183594 330.859375 119.222656 C 330.882812 119.28125 330.902344 119.335938 330.925781 119.402344 C 332.589844 123.835938 333.839844 125.5625 333.839844 125.5625 C 333.984375 125.722656 334.195312 125.882812 334.449219 126.042969 Z M 292.921875 107.925781 L 289.9375 107.160156 L 289.554688 108.054688 C 289.554688 108.054688 283.453125 107.183594 280.359375 105.722656 L 278.164062 106.382812 L 276.238281 111.160156 L 277.730469 113.851562 C 277.730469 113.851562 282.210938 114.984375 285.4375 114.984375 L 285.804688 114.605469 C 285.804688 114.605469 290.019531 114.582031 292.066406 113.726562 L 292.578125 113.257812 C 292.578125 113.257812 293.601562 110.484375 293.347656 108.695312 Z M 291.066406 111.726562 L 290.316406 112.25 L 287.457031 112.25 L 287.117188 112.777344 C 287.117188 112.777344 283.242188 112.964844 279.890625 111.875 L 278.988281 111.082031 L 279.925781 108.597656 L 280.980469 108.488281 C 280.980469 108.488281 285.71875 109.878906 288.621094 110.183594 L 288.921875 109.691406 L 291.03125 109.878906 L 291.445312 110.328125 Z M 180.878906 58.449219 C 180.820312 57.519531 180.855469 56.636719 180.949219 55.796875 C 180.035156 55.789062 179.132812 55.792969 178.242188 55.820312 C 178.242188 55.820312 178.238281 55.820312 178.238281 55.820312 C 178.175781 55.820312 178.121094 55.769531 178.117188 55.707031 C 178.113281 55.640625 178.167969 55.585938 178.234375 55.582031 C 179.132812 55.554688 180.046875 55.550781 180.972656 55.558594 C 181.476562 51.570312 183.421875 48.675781 184.328125 47.386719 C 179.03125 45.800781 172.554688 45.335938 165.082031 47.363281 C 156.507812 49.6875 151.078125 53.84375 147.660156 58.304688 C 147.636719 58.394531 147.59375 58.558594 147.59375 58.558594 L 147.523438 58.824219 C 147.523438 58.824219 146.152344 63.398438 146.808594 69.34375 C 146.84375 69.335938 146.882812 69.339844 146.910156 69.363281 C 146.957031 69.40625 146.964844 69.480469 146.921875 69.53125 C 146.894531 69.5625 146.871094 69.597656 146.839844 69.628906 C 147.421875 74.457031 149.355469 80.132812 154.421875 84.996094 C 159.429688 86.398438 166.144531 86.878906 174.859375 85.136719 C 182.722656 83.5625 188.242188 80.679688 192.101562 77.382812 C 192.011719 77.449219 191.929688 77.519531 191.835938 77.589844 C 184.179688 73.234375 181.253906 64.34375 180.878906 58.449219 Z M 151.484375 65.054688 C 150.660156 65.730469 149.859375 66.453125 149.101562 67.191406 C 149.078125 67.214844 149.050781 67.222656 149.019531 67.222656 C 148.984375 67.222656 148.957031 67.210938 148.933594 67.1875 C 148.890625 67.140625 148.890625 67.070312 148.933594 67.019531 C 149.695312 66.273438 150.503906 65.550781 151.332031 64.871094 C 151.386719 64.832031 151.457031 64.835938 151.5 64.886719 C 151.542969 64.941406 151.535156 65.015625 151.484375 65.054688 Z M 156.765625 61.4375 C 155.835938 61.964844 154.921875 62.535156 154.046875 63.132812 C 154.027344 63.144531 154.003906 63.152344 153.980469 63.152344 C 153.945312 63.152344 153.902344 63.132812 153.882812 63.101562 C 153.847656 63.050781 153.859375 62.972656 153.914062 62.9375 C 154.796875 62.335938 155.714844 61.765625 156.648438 61.234375 C 156.703125 61.203125 156.777344 61.222656 156.808594 61.28125 C 156.839844 61.335938 156.820312 61.40625 156.765625 61.4375 Z M 162.566406 58.746094 C 161.5625 59.117188 160.570312 59.53125 159.609375 59.972656 C 159.59375 59.980469 159.578125 59.984375 159.5625 59.984375 C 159.519531 59.984375 159.472656 59.960938 159.453125 59.917969 C 159.425781 59.859375 159.453125 59.792969 159.511719 59.761719 C 160.472656 59.316406 161.472656 58.898438 162.480469 58.527344 C 162.542969 58.503906 162.609375 58.535156 162.632812 58.59375 C 162.65625 58.652344 162.625 58.722656 162.566406 58.746094 Z M 168.707031 56.957031 C 167.660156 57.183594 166.613281 57.449219 165.605469 57.742188 C 165.59375 57.746094 165.585938 57.746094 165.574219 57.746094 C 165.523438 57.746094 165.472656 57.714844 165.460938 57.664062 C 165.441406 57.597656 165.480469 57.535156 165.542969 57.515625 C 166.554688 57.222656 167.605469 56.957031 168.660156 56.726562 C 168.726562 56.714844 168.789062 56.753906 168.800781 56.820312 C 168.816406 56.882812 168.773438 56.945312 168.707031 56.957031 Z M 175.042969 56.011719 C 173.96875 56.105469 172.898438 56.230469 171.859375 56.386719 C 171.855469 56.386719 171.847656 56.386719 171.84375 56.386719 C 171.789062 56.386719 171.738281 56.339844 171.730469 56.285156 C 171.722656 56.222656 171.765625 56.164062 171.828125 56.152344 C 172.871094 55.996094 173.945312 55.867188 175.023438 55.773438 C 175.082031 55.765625 175.148438 55.816406 175.152344 55.878906 C 175.15625 55.949219 175.105469 56.007812 175.042969 56.011719 Z M 323.957031 105.457031 C 323.304688 104.664062 321.890625 102.707031 320.136719 101.863281 C 319.105469 101.371094 318.519531 100.351562 318.210938 99.59375 C 318.730469 99.628906 319.796875 99.648438 320.777344 99.316406 C 321.902344 98.929688 322.558594 96.578125 322.75 95.796875 C 322.871094 95.972656 322.992188 96.160156 323.125 96.363281 C 324.429688 98.347656 327.175781 106.203125 327.53125 106.964844 C 327.664062 107.242188 327.878906 107.492188 328.121094 107.730469 C 328.105469 107.734375 327.632812 107.832031 327.5625 107.996094 C 327.488281 108.167969 327.683594 108.878906 327.683594 108.878906 C 327.683594 108.878906 327.269531 108.851562 326.984375 108.78125 C 326.761719 108.726562 326.324219 108.648438 326.113281 108.601562 L 326.089844 108.445312 C 326.09375 108.441406 325.347656 107.140625 323.957031 105.457031 Z M 323.957031 105.457031 " fill-opacity="1" fill-rule="nonzero"/><path fill="#000000" d="M 291.910156 101.691406 L 291.132812 104.308594 C 291.113281 104.378906 289.085938 111.023438 284.777344 116.429688 C 284.753906 116.457031 284.722656 116.472656 284.6875 116.472656 C 284.660156 116.472656 284.632812 116.464844 284.613281 116.449219 C 284.5625 116.410156 284.554688 116.332031 284.59375 116.28125 C 288.875 110.910156 290.890625 104.304688 290.910156 104.242188 L 291.6875 101.625 C 291.707031 101.558594 291.773438 101.527344 291.835938 101.542969 C 291.894531 101.558594 291.929688 101.628906 291.910156 101.691406 Z M 323.5 97.195312 C 323.433594 97.195312 323.378906 97.246094 323.378906 97.316406 C 323.378906 98.003906 322.675781 99.671875 321.574219 100.222656 C 320.480469 100.769531 318.90625 100.488281 318.890625 100.488281 C 318.824219 100.476562 318.769531 100.523438 318.757812 100.585938 C 318.742188 100.648438 318.789062 100.707031 318.851562 100.722656 C 318.882812 100.730469 319.300781 100.800781 319.851562 100.800781 C 320.402344 100.800781 321.09375 100.726562 321.679688 100.433594 C 322.882812 99.832031 323.613281 98.074219 323.613281 97.316406 C 323.613281 97.246094 323.5625 97.195312 323.5 97.195312 Z M 331.226562 120.339844 C 331.148438 120.332031 331.101562 120.382812 331.097656 120.449219 C 331.023438 121.328125 330.371094 121.699219 328.601562 121.886719 C 326.988281 122.058594 324.679688 121.175781 324.65625 121.164062 C 324.59375 121.140625 324.527344 121.171875 324.503906 121.230469 C 324.480469 121.292969 324.511719 121.359375 324.574219 121.382812 C 324.660156 121.417969 326.554688 122.140625 328.15625 122.140625 C 328.316406 122.140625 328.476562 122.132812 328.632812 122.117188 C 330.226562 121.953125 331.238281 121.613281 331.335938 120.464844 C 331.335938 120.398438 331.289062 120.34375 331.226562 120.339844 Z M 257.652344 102.367188 C 257.628906 102.546875 257.609375 102.851562 257.734375 102.980469 C 257.792969 103.039062 257.941406 103.066406 258.179688 103.066406 C 258.367188 103.066406 258.609375 103.050781 258.902344 103.015625 C 258.96875 103.007812 259.015625 102.949219 259.007812 102.886719 C 259 102.820312 258.941406 102.769531 258.875 102.78125 C 258.46875 102.828125 257.976562 102.851562 257.902344 102.816406 C 257.863281 102.773438 257.859375 102.546875 257.898438 102.34375 C 257.90625 102.304688 257.890625 102.265625 257.859375 102.238281 L 256.292969 100.820312 C 256.246094 100.777344 256.171875 100.78125 256.125 100.828125 C 256.082031 100.875 256.085938 100.953125 256.132812 100.996094 Z M 258.800781 100.636719 C 258.738281 100.644531 258.6875 100.699219 258.695312 100.765625 C 258.703125 100.828125 258.757812 100.875 258.824219 100.867188 C 258.910156 100.859375 259.179688 100.863281 259.300781 100.988281 C 259.425781 101.109375 259.609375 101.675781 259.691406 102.007812 C 259.703125 102.058594 259.75 102.09375 259.808594 102.09375 C 259.816406 102.09375 259.828125 102.09375 259.839844 102.089844 C 259.902344 102.074219 259.9375 102.011719 259.921875 101.945312 C 259.882812 101.796875 259.675781 101.023438 259.472656 100.820312 C 259.242188 100.59375 258.820312 100.632812 258.800781 100.636719 Z M 256.03125 104.097656 C 256.09375 104.097656 256.148438 104.046875 256.148438 103.980469 L 256.148438 101.714844 C 256.148438 101.652344 256.097656 101.597656 256.03125 101.597656 C 255.96875 101.597656 255.910156 101.648438 255.910156 101.714844 L 255.910156 103.980469 C 255.910156 104.046875 255.964844 104.097656 256.03125 104.097656 Z M 257.925781 99.734375 C 257.9375 99.734375 257.945312 99.734375 257.957031 99.730469 L 260.015625 99.152344 C 260.082031 99.136719 260.117188 99.070312 260.101562 99.011719 C 260.085938 98.949219 260.015625 98.910156 259.953125 98.925781 L 257.894531 99.503906 C 257.828125 99.519531 257.792969 99.585938 257.808594 99.648438 C 257.824219 99.699219 257.871094 99.734375 257.925781 99.734375 Z M 263.042969 83.183594 C 263.046875 83.183594 263.054688 83.183594 263.058594 83.183594 L 266.644531 82.703125 C 266.710938 82.695312 266.757812 82.636719 266.746094 82.574219 C 266.738281 82.511719 266.683594 82.464844 266.613281 82.472656 L 263.027344 82.953125 C 262.960938 82.960938 262.914062 83.019531 262.925781 83.082031 C 262.933594 83.140625 262.984375 83.183594 263.042969 83.183594 Z M 234.011719 111.179688 C 234.589844 111.585938 235.472656 112.40625 235.480469 112.414062 C 235.503906 112.433594 235.53125 112.445312 235.558594 112.445312 C 235.59375 112.445312 235.625 112.433594 235.648438 112.410156 C 235.691406 112.363281 235.691406 112.285156 235.644531 112.242188 C 235.609375 112.207031 234.742188 111.402344 234.152344 110.988281 C 233.578125 110.589844 233.109375 110.066406 233.105469 110.058594 C 233.0625 110.011719 232.984375 110.007812 232.9375 110.050781 C 232.890625 110.09375 232.886719 110.171875 232.929688 110.21875 C 232.945312 110.238281 233.414062 110.761719 234.011719 111.179688 Z M 262.816406 91.453125 C 262.769531 91.40625 262.695312 91.40625 262.648438 91.449219 C 262.601562 91.492188 262.601562 91.570312 262.644531 91.617188 C 262.6875 91.664062 267.152344 96.296875 268.066406 97.40625 C 268.964844 98.5 269.238281 99.476562 269.242188 99.488281 C 269.253906 99.539062 269.300781 99.574219 269.355469 99.574219 C 269.367188 99.574219 269.375 99.574219 269.386719 99.570312 C 269.453125 99.554688 269.488281 99.492188 269.472656 99.425781 C 269.460938 99.386719 269.1875 98.394531 268.253906 97.257812 C 267.332031 96.136719 262.863281 91.503906 262.816406 91.453125 Z M 235 65.722656 C 235 65.722656 235.003906 65.722656 235 65.722656 L 249.703125 65.429688 C 249.769531 65.429688 249.820312 65.375 249.820312 65.308594 C 249.820312 65.246094 249.761719 65.191406 249.699219 65.195312 L 235 65.488281 C 234.933594 65.488281 234.882812 65.542969 234.882812 65.609375 C 234.882812 65.671875 234.933594 65.722656 235 65.722656 Z M 213.289062 65.035156 C 213.277344 65.097656 213.320312 65.164062 213.382812 65.175781 C 213.390625 65.175781 213.398438 65.179688 213.40625 65.179688 C 213.460938 65.179688 213.511719 65.144531 213.523438 65.085938 C 213.53125 65.050781 213.714844 64.160156 213.328125 62.296875 C 212.9375 60.453125 210.210938 53.480469 210.097656 53.1875 C 210.070312 53.125 210.003906 53.09375 209.945312 53.117188 C 209.886719 53.144531 209.851562 53.210938 209.878906 53.269531 C 209.90625 53.339844 212.714844 60.519531 213.101562 62.34375 C 213.476562 64.152344 213.296875 65.027344 213.289062 65.035156 Z M 208.542969 51.410156 C 208.488281 51.378906 208.417969 51.398438 208.386719 51.457031 C 208.367188 51.488281 206.496094 54.765625 205.832031 56.097656 C 205.496094 56.765625 204.882812 57.496094 204.34375 58.140625 C 203.78125 58.804688 203.339844 59.328125 203.269531 59.691406 C 203.132812 60.363281 203.066406 61.410156 203.066406 61.453125 C 203.0625 61.519531 203.109375 61.574219 203.175781 61.578125 C 203.179688 61.578125 203.179688 61.578125 203.183594 61.578125 C 203.25 61.578125 203.300781 61.53125 203.304688 61.464844 C 203.304688 61.453125 203.371094 60.390625 203.503906 59.734375 C 203.5625 59.433594 204.03125 58.878906 204.527344 58.292969 C 205.074219 57.640625 205.695312 56.898438 206.046875 56.207031 C 206.710938 54.882812 208.578125 51.605469 208.597656 51.574219 C 208.621094 51.519531 208.601562 51.449219 208.542969 51.410156 Z M 214.871094 65.882812 L 209.742188 67.5625 C 209.679688 67.582031 209.644531 67.648438 209.667969 67.710938 C 209.683594 67.757812 209.730469 67.789062 209.777344 67.789062 C 209.789062 67.789062 209.800781 67.789062 209.8125 67.785156 L 214.941406 66.105469 C 215.003906 66.085938 215.039062 66.019531 215.019531 65.957031 C 214.996094 65.894531 214.933594 65.863281 214.871094 65.882812 Z M 224.992188 70.464844 C 223.914062 72.550781 221.539062 73.59375 221.515625 73.601562 C 221.457031 73.625 221.425781 73.695312 221.457031 73.757812 C 221.476562 73.800781 221.519531 73.828125 221.5625 73.828125 C 221.578125 73.828125 221.59375 73.824219 221.609375 73.820312 C 221.710938 73.777344 224.089844 72.738281 225.207031 70.578125 C 225.238281 70.519531 225.214844 70.449219 225.15625 70.417969 C 225.09375 70.386719 225.019531 70.40625 224.992188 70.464844 Z M 199.105469 88.65625 C 199.042969 88.636719 198.980469 88.671875 198.960938 88.738281 C 198.890625 88.96875 197.304688 94.367188 197.144531 95.578125 C 197.136719 95.640625 197.179688 95.699219 197.246094 95.707031 C 197.25 95.707031 197.257812 95.707031 197.261719 95.707031 C 197.320312 95.707031 197.367188 95.664062 197.375 95.605469 C 197.535156 94.414062 199.167969 88.855469 199.183594 88.800781 C 199.203125 88.742188 199.167969 88.671875 199.105469 88.65625 Z M 195.425781 96.042969 C 194.363281 95.796875 189.277344 96.886719 189.09375 96.929688 L 186.585938 96.847656 C 186.507812 96.847656 186.464844 96.898438 186.460938 96.964844 C 186.457031 97.027344 186.511719 97.085938 186.578125 97.089844 L 189.117188 97.167969 C 189.167969 97.15625 194.359375 96.042969 195.375 96.277344 C 195.4375 96.292969 195.503906 96.253906 195.515625 96.1875 C 195.53125 96.121094 195.488281 96.058594 195.425781 96.042969 Z M 187.835938 93.914062 C 187.796875 93.964844 187.804688 94.035156 187.851562 94.082031 C 187.871094 94.101562 187.898438 94.109375 187.925781 94.109375 C 187.960938 94.109375 187.992188 94.09375 188.019531 94.0625 C 189.269531 92.53125 191.804688 89.550781 192.429688 89.238281 C 193.21875 88.84375 195.167969 88.449219 195.1875 88.445312 C 195.25 88.433594 195.292969 88.371094 195.277344 88.308594 C 195.265625 88.242188 195.203125 88.203125 195.140625 88.214844 C 195.058594 88.230469 193.136719 88.621094 192.324219 89.027344 C 191.5 89.4375 187.980469 93.730469 187.835938 93.914062 Z M 186.027344 96.039062 L 185.105469 95.726562 C 185.046875 95.707031 184.976562 95.738281 184.957031 95.804688 C 184.9375 95.863281 184.96875 95.929688 185.035156 95.949219 L 185.957031 96.261719 C 185.96875 96.265625 185.980469 96.269531 185.992188 96.269531 C 186.039062 96.269531 186.089844 96.238281 186.105469 96.1875 C 186.125 96.125 186.09375 96.058594 186.027344 96.039062 Z M 188.460938 92.917969 C 188.503906 92.917969 188.546875 92.890625 188.566406 92.847656 C 188.589844 92.789062 188.5625 92.71875 188.503906 92.691406 L 187.359375 92.207031 C 187.296875 92.183594 187.230469 92.210938 187.203125 92.269531 C 187.179688 92.328125 187.207031 92.398438 187.265625 92.425781 L 188.410156 92.910156 C 188.425781 92.914062 188.445312 92.917969 188.460938 92.917969 Z M 191.128906 89.863281 C 191.148438 89.875 191.167969 89.878906 191.1875 89.878906 C 191.230469 89.878906 191.269531 89.859375 191.289062 89.824219 C 191.320312 89.765625 191.304688 89.695312 191.25 89.660156 L 189.707031 88.738281 C 189.652344 88.703125 189.582031 88.722656 189.546875 88.777344 C 189.515625 88.832031 189.53125 88.902344 189.585938 88.941406 Z M 202.6875 104.105469 L 200.761719 104.105469 C 200.699219 104.105469 200.640625 104.160156 200.640625 104.226562 C 200.640625 104.292969 200.695312 104.34375 200.761719 104.34375 L 202.6875 104.34375 C 202.75 104.34375 202.808594 104.292969 202.808594 104.226562 C 202.808594 104.160156 202.75 104.105469 202.6875 104.105469 Z M 210.492188 103.742188 C 210.5 103.746094 210.515625 103.746094 210.523438 103.746094 C 210.574219 103.746094 210.621094 103.707031 210.636719 103.65625 C 210.832031 102.878906 211.75 100.4375 211.761719 100.414062 C 211.769531 100.394531 211.769531 100.371094 211.765625 100.347656 L 211.5 99.21875 C 211.484375 99.152344 211.425781 99.113281 211.355469 99.128906 C 211.292969 99.144531 211.253906 99.207031 211.269531 99.273438 L 211.527344 100.367188 C 211.414062 100.675781 210.597656 102.847656 210.40625 103.601562 C 210.394531 103.660156 210.433594 103.726562 210.492188 103.742188 Z M 187.632812 83.726562 C 187.652344 83.765625 187.695312 83.792969 187.734375 83.792969 C 187.753906 83.792969 187.769531 83.789062 187.792969 83.777344 L 188.636719 83.332031 C 188.699219 83.300781 188.71875 83.234375 188.6875 83.175781 C 188.65625 83.113281 188.582031 83.09375 188.527344 83.125 L 187.679688 83.574219 C 187.625 83.601562 187.601562 83.667969 187.632812 83.726562 Z M 183.886719 86.28125 L 182.6875 87.484375 C 182.636719 87.53125 182.636719 87.601562 182.6875 87.652344 C 182.710938 87.675781 182.738281 87.6875 182.769531 87.6875 C 182.800781 87.6875 182.828125 87.675781 182.851562 87.652344 L 184.054688 86.449219 C 184.101562 86.402344 184.101562 86.328125 184.054688 86.28125 C 184.011719 86.238281 183.9375 86.238281 183.886719 86.28125 Z M 181.066406 90.136719 L 180.035156 91.683594 C 180 91.742188 180.015625 91.8125 180.066406 91.847656 C 180.089844 91.859375 180.113281 91.867188 180.132812 91.867188 C 180.171875 91.867188 180.207031 91.847656 180.230469 91.816406 L 181.261719 90.269531 C 181.296875 90.214844 181.28125 90.140625 181.230469 90.105469 C 181.179688 90.070312 181.101562 90.085938 181.066406 90.136719 Z M 179.261719 94.332031 C 179.199219 94.308594 179.132812 94.339844 179.109375 94.402344 L 178.707031 95.488281 C 178.683594 95.546875 178.714844 95.617188 178.777344 95.640625 C 178.792969 95.644531 178.808594 95.648438 178.820312 95.648438 C 178.867188 95.648438 178.910156 95.621094 178.929688 95.574219 L 179.332031 94.484375 C 179.351562 94.421875 179.320312 94.355469 179.261719 94.332031 Z M 231.691406 119.394531 C 231.636719 119.359375 231.566406 119.386719 231.535156 119.445312 C 231.5 119.503906 231.527344 119.570312 231.585938 119.605469 L 239.457031 123.671875 C 239.472656 123.679688 239.492188 123.683594 239.511719 123.683594 C 239.554688 123.683594 239.59375 123.660156 239.613281 123.617188 C 239.644531 123.558594 239.621094 123.492188 239.5625 123.460938 Z M 261.578125 115.488281 C 261.59375 115.539062 261.640625 115.566406 261.6875 115.566406 C 261.699219 115.566406 261.714844 115.5625 261.726562 115.558594 C 261.789062 115.535156 261.820312 115.464844 261.800781 115.40625 C 261.78125 115.355469 261.320312 114.125 259.773438 113.09375 C 258.25 112.082031 253.945312 110.597656 253.761719 110.535156 C 253.703125 110.515625 253.636719 110.546875 253.613281 110.609375 C 253.59375 110.667969 253.625 110.734375 253.683594 110.757812 C 253.726562 110.773438 258.144531 112.296875 259.640625 113.292969 C 261.117188 114.277344 261.574219 115.476562 261.578125 115.488281 Z M 244.246094 112.195312 L 242.546875 112.019531 C 242.484375 112.011719 242.421875 112.058594 242.417969 112.125 C 242.410156 112.1875 242.460938 112.246094 242.523438 112.25 L 244.214844 112.425781 C 244.25 112.429688 247.777344 113.019531 250.246094 115.65625 C 250.269531 115.679688 250.300781 115.691406 250.332031 115.691406 C 250.359375 115.691406 250.394531 115.679688 250.414062 115.660156 C 250.460938 115.617188 250.464844 115.542969 250.417969 115.492188 C 247.894531 112.800781 244.289062 112.203125 244.246094 112.195312 Z M 285.195312 104.796875 C 285.230469 104.796875 285.269531 104.773438 285.289062 104.742188 L 287.808594 101.035156 C 287.84375 100.980469 287.832031 100.90625 287.777344 100.871094 C 287.726562 100.835938 287.648438 100.847656 287.613281 100.902344 L 285.09375 104.613281 C 285.058594 104.667969 285.070312 104.738281 285.128906 104.773438 C 285.148438 104.789062 285.171875 104.796875 285.195312 104.796875 Z M 262.738281 121.421875 L 260.199219 124.488281 C 260.160156 124.542969 260.164062 124.613281 260.214844 124.65625 C 260.242188 124.675781 260.265625 124.683594 260.292969 124.683594 C 260.324219 124.683594 260.359375 124.667969 260.382812 124.640625 L 262.921875 121.574219 C 262.960938 121.523438 262.957031 121.449219 262.90625 121.40625 C 262.855469 121.367188 262.777344 121.375 262.738281 121.421875 Z M 297.628906 97.300781 C 297.660156 97.3125 299.882812 98.148438 302.53125 98.148438 C 303.816406 98.148438 305.203125 97.949219 306.484375 97.363281 C 310.429688 95.554688 310.34375 92.847656 310.339844 92.734375 C 310.335938 92.671875 310.28125 92.621094 310.21875 92.625 C 310.152344 92.628906 310.101562 92.683594 310.105469 92.746094 C 310.105469 92.773438 310.183594 95.417969 306.390625 97.152344 C 302.5625 98.902344 297.765625 97.101562 297.714844 97.085938 C 297.65625 97.058594 297.589844 97.09375 297.566406 97.152344 C 297.539062 97.207031 297.566406 97.273438 297.628906 97.300781 Z M 319.5625 110.6875 C 319.5 110.699219 319.460938 110.761719 319.472656 110.828125 C 319.65625 111.757812 319.472656 112.550781 318.933594 113.171875 C 317.925781 114.34375 315.652344 114.882812 312.355469 114.734375 C 306.375 114.464844 303.9375 111.636719 303.699219 110.3125 C 303.453125 108.953125 305.15625 107.921875 305.171875 107.914062 C 305.226562 107.882812 305.25 107.8125 305.210938 107.75 C 305.179688 107.695312 305.105469 107.675781 305.050781 107.710938 C 304.972656 107.753906 303.1875 108.832031 303.464844 110.355469 C 303.59375 111.066406 304.269531 112.167969 305.785156 113.140625 C 306.953125 113.894531 309.039062 114.820312 312.34375 114.96875 C 312.710938 114.984375 313.070312 114.992188 313.417969 114.992188 C 316.242188 114.992188 318.15625 114.429688 319.113281 113.320312 C 319.703125 112.640625 319.902344 111.785156 319.703125 110.777344 C 319.6875 110.714844 319.628906 110.675781 319.5625 110.6875 Z M 301 102.527344 C 300.9375 102.503906 300.871094 102.535156 300.847656 102.59375 C 300.824219 102.65625 300.855469 102.722656 300.914062 102.746094 C 300.933594 102.753906 302.914062 103.496094 303.523438 104.34375 C 304.148438 105.207031 304.589844 106.183594 304.59375 106.195312 C 304.617188 106.238281 304.660156 106.261719 304.703125 106.261719 C 304.71875 106.261719 304.734375 106.257812 304.75 106.25 C 304.808594 106.222656 304.835938 106.15625 304.808594 106.097656 C 304.804688 106.089844 304.355469 105.089844 303.714844 104.207031 C 303.0625 103.308594 301.082031 102.558594 301 102.527344 Z M 308.949219 104.007812 C 308.9375 103.945312 308.871094 103.898438 308.8125 103.910156 L 304.636719 104.65625 C 304.570312 104.667969 304.527344 104.726562 304.539062 104.792969 C 304.550781 104.847656 304.597656 104.886719 304.65625 104.886719 C 304.664062 104.886719 304.667969 104.886719 304.675781 104.886719 L 308.851562 104.140625 C 308.917969 104.132812 308.960938 104.070312 308.949219 104.007812 Z M 304.117188 106.980469 C 304.121094 106.914062 304.070312 106.859375 304.007812 106.855469 C 302.832031 106.8125 299.609375 107.730469 299.476562 107.769531 C 299.410156 107.792969 299.375 107.855469 299.394531 107.917969 C 299.410156 107.96875 299.460938 108.003906 299.507812 108.003906 C 299.519531 108.003906 299.527344 108.003906 299.539062 107.996094 C 299.570312 107.988281 302.867188 107.042969 303.996094 107.09375 C 304.058594 107.09375 304.113281 107.042969 304.117188 106.980469 Z M 318.152344 98.605469 C 318.171875 98.605469 318.195312 98.601562 318.214844 98.585938 L 319.277344 97.917969 C 319.332031 97.882812 319.347656 97.8125 319.3125 97.757812 C 319.277344 97.699219 319.207031 97.683594 319.148438 97.722656 L 318.085938 98.386719 C 318.03125 98.421875 318.015625 98.492188 318.050781 98.546875 C 318.074219 98.585938 318.117188 98.605469 318.152344 98.605469 Z M 325.484375 119.414062 C 325.484375 119.347656 325.429688 119.296875 325.363281 119.296875 C 325.363281 119.296875 325.363281 119.296875 325.359375 119.296875 L 323.980469 119.324219 C 323.917969 119.324219 323.863281 119.382812 323.863281 119.445312 C 323.863281 119.507812 323.921875 119.558594 323.984375 119.558594 C 323.984375 119.558594 323.984375 119.558594 323.988281 119.558594 L 325.367188 119.53125 C 325.433594 119.527344 325.484375 119.476562 325.484375 119.414062 Z M 298.269531 102.121094 C 298.253906 102.117188 296.597656 101.902344 295.96875 101.695312 C 295.324219 101.480469 293.710938 101.050781 293.695312 101.046875 C 293.632812 101.03125 293.566406 101.066406 293.550781 101.128906 C 293.535156 101.195312 293.570312 101.257812 293.632812 101.273438 C 293.648438 101.277344 295.257812 101.707031 295.894531 101.917969 C 296.546875 102.136719 298.167969 102.347656 298.238281 102.355469 C 298.242188 102.355469 298.25 102.355469 298.253906 102.355469 C 298.3125 102.355469 298.359375 102.3125 298.367188 102.253906 C 298.375 102.183594 298.332031 102.128906 298.269531 102.121094 Z M 295.59375 112.417969 C 295.054688 113.351562 294.574219 115.5 294.554688 115.589844 C 294.539062 115.652344 294.578125 115.714844 294.640625 115.730469 C 294.648438 115.730469 294.65625 115.734375 294.664062 115.734375 C 294.71875 115.734375 294.769531 115.695312 294.78125 115.640625 C 294.785156 115.621094 295.273438 113.441406 295.796875 112.535156 C 295.832031 112.476562 295.808594 112.40625 295.753906 112.375 C 295.699219 112.34375 295.628906 112.359375 295.59375 112.417969 Z M 208.007812 108.128906 C 207.957031 108.089844 207.878906 108.097656 207.84375 108.148438 C 207.804688 108.199219 207.8125 108.273438 207.863281 108.3125 L 214.589844 113.492188 C 214.609375 113.507812 214.636719 113.515625 214.660156 113.515625 C 214.695312 113.515625 214.730469 113.5 214.75 113.46875 C 214.789062 113.417969 214.78125 113.34375 214.730469 113.304688 Z M 279.164062 93.753906 C 279.078125 93.757812 270.847656 94.109375 269.4375 93.523438 C 268.011719 92.925781 263.816406 90.894531 263.773438 90.871094 C 263.714844 90.839844 263.644531 90.867188 263.613281 90.925781 C 263.585938 90.984375 263.609375 91.050781 263.671875 91.085938 C 263.714844 91.105469 267.914062 93.144531 269.347656 93.742188 C 270.023438 94.023438 272.128906 94.101562 274.21875 94.101562 C 276.613281 94.101562 278.992188 94 279.171875 93.992188 C 279.234375 93.988281 279.285156 93.933594 279.28125 93.871094 C 279.28125 93.800781 279.226562 93.753906 279.164062 93.753906 Z M 143.0625 74.667969 C 142.5625 75.585938 142.335938 76.132812 142.328125 76.15625 C 142.304688 76.214844 142.332031 76.285156 142.394531 76.3125 C 142.410156 76.316406 142.421875 76.320312 142.4375 76.320312 C 142.484375 76.320312 142.527344 76.292969 142.542969 76.246094 C 142.546875 76.242188 142.769531 75.691406 143.265625 74.785156 C 143.296875 74.726562 143.273438 74.65625 143.21875 74.625 C 143.164062 74.589844 143.09375 74.609375 143.0625 74.667969 Z M 156.644531 61.234375 C 155.710938 61.765625 154.792969 62.335938 153.910156 62.9375 C 153.855469 62.972656 153.84375 63.050781 153.878906 63.101562 C 153.902344 63.132812 153.941406 63.152344 153.976562 63.152344 C 154 63.152344 154.023438 63.144531 154.042969 63.132812 C 154.917969 62.535156 155.828125 61.964844 156.761719 61.4375 C 156.816406 61.40625 156.835938 61.335938 156.804688 61.28125 C 156.777344 61.222656 156.699219 61.203125 156.644531 61.234375 Z M 168.660156 56.726562 C 167.605469 56.953125 166.554688 57.222656 165.542969 57.515625 C 165.476562 57.535156 165.441406 57.597656 165.460938 57.664062 C 165.476562 57.714844 165.527344 57.746094 165.574219 57.746094 C 165.585938 57.746094 165.59375 57.746094 165.605469 57.742188 C 166.617188 57.449219 167.660156 57.183594 168.707031 56.957031 C 168.773438 56.945312 168.8125 56.882812 168.800781 56.820312 C 168.789062 56.753906 168.726562 56.714844 168.660156 56.726562 Z M 146.738281 69.378906 C 146.039062 70.203125 145.375 71.0625 144.765625 71.929688 C 144.730469 71.980469 144.742188 72.058594 144.792969 72.09375 C 144.8125 72.109375 144.835938 72.113281 144.859375 72.113281 C 144.894531 72.113281 144.933594 72.097656 144.957031 72.0625 C 145.554688 71.199219 146.21875 70.347656 146.914062 69.527344 C 146.957031 69.480469 146.949219 69.402344 146.902344 69.359375 C 146.859375 69.324219 146.78125 69.328125 146.738281 69.378906 Z M 151.335938 64.871094 C 150.507812 65.550781 149.699219 66.277344 148.9375 67.019531 C 148.890625 67.066406 148.890625 67.140625 148.9375 67.1875 C 148.960938 67.210938 148.992188 67.222656 149.023438 67.222656 C 149.050781 67.222656 149.082031 67.210938 149.105469 67.191406 C 149.863281 66.453125 150.664062 65.730469 151.488281 65.054688 C 151.539062 65.015625 151.542969 64.941406 151.503906 64.886719 C 151.460938 64.839844 151.386719 64.832031 151.335938 64.871094 Z M 162.480469 58.527344 C 161.472656 58.898438 160.472656 59.316406 159.511719 59.761719 C 159.449219 59.792969 159.425781 59.859375 159.453125 59.917969 C 159.472656 59.960938 159.519531 59.984375 159.5625 59.984375 C 159.578125 59.984375 159.59375 59.980469 159.609375 59.972656 C 160.570312 59.527344 161.5625 59.113281 162.566406 58.746094 C 162.625 58.722656 162.65625 58.652344 162.632812 58.59375 C 162.613281 58.535156 162.546875 58.503906 162.480469 58.527344 Z M 191.027344 56.632812 C 192.058594 56.789062 193.125 56.964844 194.1875 57.164062 C 194.195312 57.164062 194.203125 57.167969 194.207031 57.167969 C 194.265625 57.167969 194.3125 57.128906 194.324219 57.074219 C 194.335938 57.011719 194.292969 56.949219 194.230469 56.9375 C 193.164062 56.738281 192.097656 56.5625 191.058594 56.40625 C 190.992188 56.398438 190.933594 56.441406 190.921875 56.503906 C 190.917969 56.566406 190.960938 56.625 191.027344 56.632812 Z M 187.859375 56.222656 C 187.917969 56.222656 187.96875 56.179688 187.972656 56.117188 C 187.980469 56.054688 187.933594 55.996094 187.871094 55.988281 C 186.792969 55.867188 185.714844 55.777344 184.667969 55.707031 C 184.605469 55.699219 184.546875 55.75 184.542969 55.816406 C 184.539062 55.878906 184.589844 55.9375 184.65625 55.941406 C 185.703125 56.007812 186.777344 56.101562 187.851562 56.222656 C 187.851562 56.21875 187.855469 56.222656 187.859375 56.222656 Z M 181.453125 55.566406 C 180.363281 55.546875 179.292969 55.554688 178.234375 55.585938 C 178.171875 55.589844 178.117188 55.640625 178.117188 55.710938 C 178.121094 55.773438 178.175781 55.824219 178.238281 55.824219 C 178.238281 55.824219 178.242188 55.824219 178.242188 55.824219 C 179.296875 55.792969 180.363281 55.785156 181.449219 55.804688 C 181.515625 55.8125 181.566406 55.753906 181.566406 55.6875 C 181.566406 55.621094 181.515625 55.566406 181.453125 55.566406 Z M 175.023438 55.777344 C 173.945312 55.871094 172.871094 56 171.828125 56.15625 C 171.765625 56.164062 171.722656 56.222656 171.730469 56.289062 C 171.738281 56.351562 171.789062 56.390625 171.84375 56.390625 C 171.847656 56.390625 171.855469 56.390625 171.859375 56.390625 C 172.898438 56.234375 173.96875 56.109375 175.042969 56.015625 C 175.105469 56.011719 175.15625 55.953125 175.152344 55.886719 C 175.148438 55.820312 175.082031 55.773438 175.023438 55.777344 Z M 197.351562 57.8125 C 197.882812 57.933594 198.414062 58.054688 198.957031 58.183594 C 198.964844 58.1875 198.976562 58.1875 198.984375 58.1875 C 199.035156 58.1875 199.085938 58.152344 199.097656 58.097656 C 199.113281 58.03125 199.074219 57.96875 199.011719 57.953125 C 198.46875 57.820312 197.933594 57.699219 197.402344 57.582031 C 197.339844 57.570312 197.277344 57.609375 197.265625 57.671875 C 197.25 57.738281 197.289062 57.796875 197.351562 57.8125 Z M 197.351562 57.8125 " fill-opacity="1" fill-rule="nonzero"/><g fill="#ffffff" fill-opacity="1"><g transform="translate(53.378355, 97.180902)"><g><path d="M 0.316406 0 L 3.078125 0 L 3.078125 -2.335938 L 4.457031 -2.335938 L 4.457031 -4.351562 L 3.078125 -4.351562 L 3.078125 -5.304688 L 5.09375 -5.304688 L 5.09375 -7.640625 L 0.316406 -7.640625 Z M 0.316406 0 "/></g></g></g><g fill="#ffffff" fill-opacity="1"><g transform="translate(58.948372, 97.180902)"><g><path d="M 0.316406 0 L 3.078125 0 L 3.078125 -7.640625 L 0.316406 -7.640625 Z M 0.316406 0 "/></g></g></g><g fill="#ffffff" fill-opacity="1"><g transform="translate(62.661725, 97.180902)"><g><path d="M 0.316406 0 L 2.757812 0 L 2.757812 -4.507812 L 2.78125 -4.507812 L 4.878906 0 L 8.0625 0 L 8.0625 -7.640625 L 5.625 -7.640625 L 5.625 -3.109375 L 5.601562 -3.109375 L 3.5 -7.640625 L 0.316406 -7.640625 Z M 0.316406 0 "/></g></g></g><g fill="#ffffff" fill-opacity="1"><g transform="translate(71.36155, 97.180902)"><g><path d="M 0.316406 0 L 3.4375 0 C 5.867188 0 7.214844 -1.367188 7.214844 -3.820312 C 7.214844 -6.269531 5.886719 -7.640625 3.492188 -7.640625 L 0.316406 -7.640625 Z M 2.972656 -2.121094 L 2.972656 -5.515625 L 3.382812 -5.515625 C 4.074219 -5.515625 4.457031 -4.914062 4.457031 -3.820312 C 4.457031 -2.726562 4.074219 -2.121094 3.382812 -2.121094 Z M 2.972656 -2.121094 "/></g></g></g><g fill="#ffffff" fill-opacity="1"><g transform="translate(79.053471, 97.180902)"><g/></g></g><g fill="#ffffff" fill-opacity="1"><g transform="translate(80.751017, 97.180902)"><g><path d="M 2.175781 0 L 4.933594 0 L 4.933594 -2.546875 L 7.035156 -7.640625 L 4.136719 -7.640625 L 3.566406 -4.773438 L 3.542969 -4.773438 L 2.855469 -7.640625 L 0 -7.640625 L 2.175781 -2.546875 Z M 2.175781 0 "/></g></g></g><g fill="#ffffff" fill-opacity="1"><g transform="translate(88.103434, 97.180902)"><g><path d="M 4.085938 0.210938 C 6.449219 0.210938 8.011719 -1.378906 8.011719 -3.820312 C 8.011719 -6.261719 6.449219 -7.851562 4.085938 -7.851562 C 1.71875 -7.851562 0.160156 -6.261719 0.160156 -3.820312 C 0.160156 -1.378906 1.71875 0.210938 4.085938 0.210938 Z M 4.085938 -2.121094 C 3.351562 -2.121094 2.917969 -2.757812 2.917969 -3.820312 C 2.917969 -4.878906 3.351562 -5.515625 4.085938 -5.515625 C 4.816406 -5.515625 5.25 -4.878906 5.25 -3.820312 C 5.25 -2.757812 4.816406 -2.121094 4.085938 -2.121094 Z M 4.085938 -2.121094 "/></g></g></g><g fill="#ffffff" fill-opacity="1"><g transform="translate(96.591067, 97.180902)"><g><path d="M 3.660156 0.210938 C 5.804688 0.210938 7.003906 -0.796875 7.003906 -2.597656 L 7.003906 -7.640625 L 4.242188 -7.640625 L 4.242188 -2.917969 C 4.242188 -2.410156 4.03125 -2.121094 3.660156 -2.121094 C 3.289062 -2.121094 3.078125 -2.410156 3.078125 -2.917969 L 3.078125 -7.640625 L 0.316406 -7.640625 L 0.316406 -2.597656 C 0.316406 -0.796875 1.515625 0.210938 3.660156 0.210938 Z M 3.660156 0.210938 "/></g></g></g><g fill="#ffffff" fill-opacity="1"><g transform="translate(104.229941, 97.180902)"><g><path d="M 5.484375 0.160156 C 6.078125 0.160156 6.8125 -0.0742188 7.257812 -0.402344 L 6.9375 -1.613281 C 6.820312 -1.550781 6.707031 -1.515625 6.589844 -1.515625 C 6.472656 -1.515625 6.355469 -1.601562 6.335938 -1.8125 L 6.28125 -2.238281 C 6.226562 -2.664062 6.089844 -2.992188 5.644531 -3.128906 L 5.644531 -3.140625 C 6.375 -3.40625 6.789062 -4.09375 6.789062 -5.0625 C 6.789062 -6.714844 5.613281 -7.640625 3.492188 -7.640625 L 0.316406 -7.640625 L 0.316406 0 L 3.078125 0 L 3.078125 -2.546875 L 3.269531 -2.546875 C 3.449219 -2.546875 3.605469 -2.410156 3.628906 -2.238281 L 3.765625 -1.328125 C 3.894531 -0.457031 4.53125 0.160156 5.484375 0.160156 Z M 3.078125 -4.242188 L 3.078125 -5.730469 L 3.382812 -5.730469 C 3.796875 -5.730469 4.03125 -5.464844 4.03125 -4.988281 C 4.03125 -4.507812 3.796875 -4.242188 3.382812 -4.242188 Z M 3.078125 -4.242188 "/></g></g></g><g fill="#ffffff" fill-opacity="1"><g transform="translate(111.805157, 97.180902)"><g/></g></g><g fill="#ffffff" fill-opacity="1"><g transform="translate(113.502703, 97.180902)"><g><path d="M 0.316406 0 L 5.09375 0 L 5.09375 -2.121094 L 2.972656 -2.121094 L 2.972656 -2.972656 L 4.5625 -2.972656 L 4.5625 -4.773438 L 2.972656 -4.773438 L 2.972656 -5.515625 L 4.988281 -5.515625 L 4.988281 -7.640625 L 0.316406 -7.640625 Z M 0.316406 0 "/></g></g></g><g fill="#ffffff" fill-opacity="1"><g transform="translate(119.072722, 97.180902)"><g><path d="M 2.003906 0 L 5.613281 0 L 7.617188 -7.640625 L 4.765625 -7.640625 L 3.820312 -2.558594 L 3.796875 -2.558594 L 2.855469 -7.640625 L 0 -7.640625 Z M 2.003906 0 "/></g></g></g><g fill="#ffffff" fill-opacity="1"><g transform="translate(127.008663, 97.180902)"><g><path d="M 0.316406 0 L 5.09375 0 L 5.09375 -2.121094 L 2.972656 -2.121094 L 2.972656 -2.972656 L 4.5625 -2.972656 L 4.5625 -4.773438 L 2.972656 -4.773438 L 2.972656 -5.515625 L 4.988281 -5.515625 L 4.988281 -7.640625 L 0.316406 -7.640625 Z M 0.316406 0 "/></g></g></g><g fill="#ffffff" fill-opacity="1"><g transform="translate(132.578682, 97.180902)"><g><path d="M 0.316406 0 L 2.757812 0 L 2.757812 -4.507812 L 2.78125 -4.507812 L 4.878906 0 L 8.0625 0 L 8.0625 -7.640625 L 5.625 -7.640625 L 5.625 -3.109375 L 5.601562 -3.109375 L 3.5 -7.640625 L 0.316406 -7.640625 Z M 0.316406 0 "/></g></g></g><g fill="#ffffff" fill-opacity="1"><g transform="translate(141.278505, 97.180902)"><g><path d="M 1.804688 0 L 4.5625 0 L 4.5625 -5.304688 L 6.152344 -5.304688 L 6.152344 -7.640625 L 0.210938 -7.640625 L 0.210938 -5.304688 L 1.804688 -5.304688 Z M 1.804688 0 "/></g></g></g><g fill="#ffffff" fill-opacity="1"><g transform="translate(147.962524, 97.180902)"><g><path d="M 3.160156 0.210938 C 5.144531 0.210938 6.335938 -0.804688 6.335938 -2.441406 C 6.335938 -3.734375 5.644531 -4.464844 4.042969 -4.871094 L 3.5 -4.996094 C 2.917969 -5.136719 2.746094 -5.285156 2.746094 -5.550781 C 2.746094 -5.792969 2.90625 -5.941406 3.121094 -5.941406 C 3.394531 -5.941406 3.597656 -5.664062 3.597656 -5.210938 L 5.984375 -5.632812 C 5.921875 -7.066406 4.742188 -7.851562 3.203125 -7.851562 C 1.292969 -7.851562 0.234375 -6.90625 0.234375 -5.304688 C 0.234375 -3.957031 0.933594 -3.214844 2.558594 -2.832031 L 3.128906 -2.695312 C 3.628906 -2.578125 3.808594 -2.429688 3.808594 -2.152344 C 3.808594 -1.898438 3.585938 -1.75 3.289062 -1.75 C 2.894531 -1.75 2.589844 -2.015625 2.589844 -2.597656 L 0.105469 -2.28125 C 0.191406 -0.691406 1.402344 0.210938 3.160156 0.210938 Z M 3.160156 0.210938 "/></g></g></g></svg>